name analog
datacolumns 19
datarows 55
range 0.14100000000000001 0.168
endheader
time	ground_force_vx	ground_force_vy	ground_force_vz	ground_force_px	ground_force_py	ground_force_pz	l_ground_force_vx	l_ground_force_vy	l_ground_force_vz	l_ground_force_px	l_ground_force_py	l_ground_force_pz	ground_torque_x	ground_torque_y	ground_torque_z	l_ground_torque_x	l_ground_torque_y	l_ground_torque_z
0.14100000000000001	-0.0	-0.0	-0.0	1.5433549880981443	-2.199289321899414	-778.8677368164062	-0.0	-0.0	-0.0	-34.67838668823242	16.136247634887695	76.507568359375	-0.0	-0.0	-0.0	-0.0	-0.0	-0.0
0.14150000000000001	-0.0	-0.0	-0.0	1.839794874191284	-1.7536749839782717	-779.1242065429688	-0.0	-0.0	-0.0	-35.16245651245117	16.01459503173828	76.06378173828125	-0.0	-0.0	-0.0	-0.0	-0.0	-0.0
0.14200000000000002	-0.0	-0.0	-0.0	2.3243660926818848	-1.2767210006713867	-780.279296875	-0.0	-0.0	-0.0	-34.859901428222656	16.438142776489258	75.8056640625	-0.0	-0.0	-0.0	-0.0	-0.0	-0.0
0.14250000000000002	-0.0	-0.0	-0.0	2.6084864139556885	-1.067060470581055	-782.646728515625	-0.0	-0.0	-0.0	-34.89161682128906	16.19736099243164	75.3414077758789	-0.0	-0.0	-0.0	-0.0	-0.0	-0.0
0.14300000000000002	-0.0	-0.0	-0.0	2.6789348125457764	-0.3224494457244873	-783.4777221679688	-0.0	-0.0	-0.0	-34.70988464355469	16.3425235748291	74.9676513671875	-0.0	-0.0	-0.0	-0.0	-0.0	-0.0
0.14350000000000002	-0.0	-0.0	-0.0	2.7339673042297363	0.5429726839065552	-784.8907470703125	-0.0	-0.0	-0.0	-34.92368698120117	16.052732467651367	75.31786346435547	-0.0	-0.0	-0.0	-0.0	-0.0	-0.0
0.14400000000000002	-0.0	-0.0	-0.0	3.179982185363769	0.7993872165679932	-785.586181640625	-0.0	-0.0	-0.0	-34.773651123046875	16.42926597595215	75.93074035644531	-0.0	-0.0	-0.0	-0.0	-0.0	-0.0
0.1445	-0.0	-0.0	-0.0	3.453342199325561	1.221981167793274	-784.9821166992188	-0.0	-0.0	-0.0	-34.9463005065918	16.25881576538086	75.34192657470703	-0.0	-0.0	-0.0	-0.0	-0.0	-0.0
0.145	-0.0	-0.0	-0.0	3.718109607696533	0.8943161964416504	-787.375732421875	-0.0	-0.0	-0.0	-34.767311096191406	16.16565704345703	76.64627075195312	-0.0	-0.0	-0.0	-0.0	-0.0	-0.0
0.1455	-0.0	-0.0	-0.0	4.400014877319336	0.413870245218277	-788.6507568359375	-0.0	-0.0	-0.0	-34.73856735229492	15.95347023010254	75.69314575195312	-0.0	-0.0	-0.0	-0.0	-0.0	-0.0
0.146	-0.0	-0.0	-0.0	4.909764289855957	-0.541148841381073	-788.2850341796875	-0.0	-0.0	-0.0	-34.799346923828125	16.28801727294922	75.11746215820312	-0.0	-0.0	-0.0	-0.0	-0.0	-0.0
0.1465	-0.0	-0.0	-0.0	5.2986555099487305	-0.5633938312530518	-788.8775024414062	-0.0	-0.0	-0.0	-34.94603729248047	16.032495498657227	75.5528335571289	-0.0	-0.0	-0.0	-0.0	-0.0	-0.0
0.147	-0.0	-0.0	-0.0	5.202808856964111	-0.3782773911952972	-790.2037963867188	-0.0	-0.0	-0.0	-34.97826385498047	16.198274612426758	74.26055145263672	-0.0	-0.0	-0.0	-0.0	-0.0	-0.0
0.1475	-0.0	-0.0	-0.0	4.931705474853516	-0.8913040161132812	-787.7044677734375	-0.0	-0.0	-0.0	-35.16471099853516	16.198320388793945	76.5223388671875	-0.0	-0.0	-0.0	-0.0	-0.0	-0.0
0.148	-0.0	-0.0	-0.0	4.521189212799072	-0.8913040161132812	-788.6366577148438	-0.0	-0.0	-0.0	-34.82399368286133	16.13715362548828	74.40185546875	-0.0	-0.0	-0.0	-0.0	-0.0	-0.0
0.1485	-0.0	-0.0	-0.0	4.342805862426758	-0.8021736145019531	-787.2235107421875	-0.0	-0.0	-0.0	-34.73837661743164	15.953277587890623	74.52928161621094	-0.0	-0.0	-0.0	-0.0	-0.0	-0.0
0.149	-0.0	-0.0	-0.0	4.500242710113525	-0.8553617000579834	-785.4573974609375	-0.0	-0.0	-0.0	-34.770877838134766	16.16997718811035	77.48052215576172	-0.0	-0.0	-0.0	-0.0	-0.0	-0.0
0.1495	-0.0	-0.0	-0.0	4.192893981933594	-0.7014865875244141	-785.2010498046875	-0.0	-0.0	-0.0	-34.88880157470703	16.41144371032715	76.73064422607422	-0.0	-0.0	-0.0	-0.0	-0.0	-0.0
0.15	-0.0	-0.0	-0.0	3.799700736999512	-1.0491065979003906	-783.4498291015625	-0.0	-0.0	-0.0	-35.10894775390625	16.165979385375977	75.78887939453125	-0.0	-0.0	-0.0	-0.0	-0.0	-0.0
0.1505	-0.0	-0.0	-0.0	3.807652950286865	-1.7745885848999023	-783.1441650390625	-0.0	-0.0	-0.0	-35.030696868896484	16.247268676757812	76.396240234375	-0.0	-0.0	-0.0	-0.0	-0.0	-0.0
0.151	-0.0	-0.0	-0.0	4.493013381958008	-2.1958014965057373	-781.4913330078125	-0.0	-0.0	-0.0	-34.82768630981445	16.12860679626465	77.41443634033203	-0.0	-0.0	-0.0	-0.0	-0.0	-0.0
0.1515	-0.0	-0.0	-0.0	4.728157043457031	-2.872000217437744	-779.0028076171875	-0.0	-0.0	-0.0	-34.92165756225586	16.37904930114746	75.1216049194336	-0.0	-0.0	-0.0	-0.0	-0.0	-0.0
0.152	-0.0	-0.0	-0.0	6.090344429016113	-3.5129234790802	-779.9503173828125	-0.0	-0.0	-0.0	-34.917091369628906	16.293737411499023	74.97476959228516	-0.0	-0.0	-0.0	-0.0	-0.0	-0.0
0.1525	-0.0	-0.0	-0.0	6.577698707580566	-4.217375755310059	-778.3738403320312	-0.0	-0.0	-0.0	-34.761688232421875	16.24662971496582	76.04578399658203	-0.0	-0.0	-0.0	-0.0	-0.0	-0.0
0.153	-0.0	-0.0	-0.0	6.751764297485352	-5.60170841217041	-779.4859619140625	-0.0	-0.0	-0.0	-34.88880157470703	16.402849197387695	75.8056640625	-0.0	-0.0	-0.0	-0.0	-0.0	-0.0
0.1535	-0.0	-0.0	-0.0	7.071229457855225	-6.511118412017822	-779.69140625	-0.0	-0.0	-0.0	-34.492958068847656	16.13290786743164	75.34415435791016	-0.0	-0.0	-0.0	-0.0	-0.0	-0.0
0.154	-0.0	-0.0	-0.0	7.503045558929443	-7.754344940185547	-777.7022705078125	-0.0	-0.0	-0.0	-35.10586166381836	16.284503936767578	75.34425354003906	-0.0	-0.0	-0.0	-0.0	-0.0	-0.0
0.1545	-0.0	-0.0	-0.0	7.517027378082275	-8.622325897216797	-775.509765625	-0.0	-0.0	-0.0	-34.79423904418945	16.104564666748047	75.91596984863281	-0.0	-0.0	-0.0	-0.0	-0.0	-0.0
0.155	-0.0	-0.0	-0.0	7.606087207794189	-8.880061149597168	-774.2622680664062	-0.0	-0.0	-0.0	-34.91166687011719	16.037586212158203	75.78518676757812	-0.0	-0.0	-0.0	-0.0	-0.0	-0.0
0.1555	-0.0	-0.0	-0.0	8.375873565673828	-9.60297679901123	-773.7453002929688	-0.0	-0.0	-0.0	-34.82213592529297	16.037519454956055	76.63833618164062	-0.0	-0.0	-0.0	-0.0	-0.0	-0.0
0.156	-0.0	-0.0	-0.0	8.357741355895996	-9.916430473327637	-769.7811279296875	-0.0	-0.0	-0.0	-34.88880157470703	16.171762466430664	75.93672180175781	-0.0	-0.0	-0.0	-0.0	-0.0	-0.0
0.1565	-0.0	-0.0	-0.0	8.714620590209961	-10.038573265075684	-768.47021484375	-0.0	-0.0	-0.0	-35.15718078613281	15.924625396728516	74.35873413085938	-0.0	-0.0	-0.0	-0.0	-0.0	-0.0
0.157	-0.0	-0.0	-0.0	8.630666732788086	-10.695648193359377	-764.8561401367188	-0.0	-0.0	-0.0	-34.71543884277344	16.143857955932617	75.43293762207031	-0.0	-0.0	-0.0	-0.0	-0.0	-0.0
0.1575	-0.0	-0.0	-0.0	8.273975372314453	-10.784778594970703	-763.9070434570312	-0.0	-0.0	-0.0	-34.983924865722656	15.800868034362791	76.1343994140625	-0.0	-0.0	-0.0	-0.0	-0.0	-0.0
0.158	-0.0	-0.0	-0.0	7.91728401184082	-11.252267837524414	-760.706298828125	-0.0	-0.0	-0.0	-34.86090850830078	16.110374450683594	76.88118743896484	-0.0	-0.0	-0.0	-0.0	-0.0	-0.0
0.1585	-0.0	-0.0	-0.0	8.062350273132324	-10.907283782958984	-757.2847290039062	-0.0	-0.0	-0.0	-34.79352951049805	16.070676803588867	75.85128784179688	-0.0	-0.0	-0.0	-0.0	-0.0	-0.0
0.159	-0.0	-0.0	-0.0	6.841343879699707	-10.33372402191162	-757.239990234375	-0.0	-0.0	-0.0	-35.07957458496094	16.386398315429688	74.5110855102539	-0.0	-0.0	-0.0	-0.0	-0.0	-0.0
0.1595	-0.0	-0.0	-0.0	5.915721416473389	-9.988327026367188	-755.1213989257812	-0.0	-0.0	-0.0	-34.98430252075195	16.71854019165039	75.54009246826172	-0.0	-0.0	-0.0	-0.0	-0.0	-0.0
0.16	-0.0	-0.0	-0.0	5.38621187210083	-9.39224338531494	-752.3605346679688	-0.0	-0.0	-0.0	-34.73767852783203	15.828540802001951	75.1889419555664	-0.0	-0.0	-0.0	-0.0	-0.0	-0.0
0.1605	-0.0	-0.0	-0.0	4.32751989364624	-9.49907112121582	-751.32373046875	-0.0	-0.0	-0.0	-34.86104965209961	16.498586654663086	76.24120330810547	-0.0	-0.0	-0.0	-0.0	-0.0	-0.0
0.161	-0.0	-0.0	-0.0	3.8975231647491455	-9.186418533325195	-750.3975219726562	-0.0	-0.0	-0.0	-35.16348648071289	16.222410202026367	76.07262420654297	-0.0	-0.0	-0.0	-0.0	-0.0	-0.0
0.1615	-0.0	-0.0	-0.0	3.005448341369629	-8.817831039428711	-749.204345703125	-0.0	-0.0	-0.0	-34.83342742919922	16.070283889770508	74.97003936767578	-0.0	-0.0	-0.0	-0.0	-0.0	-0.0
0.162	-0.0	-0.0	-0.0	2.430222272872925	-8.221516609191895	-749.9592895507812	-0.0	-0.0	-0.0	-35.088924407958984	16.104564666748047	75.18693542480469	-0.0	-0.0	-0.0	-0.0	-0.0	-0.0
0.1625	-0.0	-0.0	-0.0	2.1749634742736816	-6.964683532714844	-748.4977416992188	-0.0	-0.0	-0.0	-34.52439498901367	16.222318649291992	75.8056640625	-0.0	-0.0	-0.0	-0.0	-0.0	-0.0
0.163	-0.0	-0.0	-0.0	1.8734207153320312	-6.396170616149902	-749.6076049804688	-0.0	-0.0	-0.0	-35.00585174560547	16.00113868713379	75.94014739990234	-0.0	-0.0	-0.0	-0.0	-0.0	-0.0
0.1635	-0.0	-0.0	-0.0	1.2130054235458374	-5.704345703125	-747.9589233398438	-0.0	-0.0	-0.0	-34.895538330078125	16.035554885864258	76.48115539550781	-0.0	-0.0	-0.0	-0.0	-0.0	-0.0
0.164	-0.0	-0.0	-0.0	0.204544186592102	-4.757971286773682	-748.3883056640625	-0.0	-0.0	-0.0	-34.95072555541992	16.270580291748047	75.2386474609375	-0.0	-0.0	-0.0	-0.0	-0.0	-0.0
0.1645	-0.0	-0.0	-0.0	-0.4052427411079407	-4.613921165466309	-748.6889038085938	-0.0	-0.0	-0.0	-34.95076370239258	15.813655853271484	76.77794647216797	-0.0	-0.0	-0.0	-0.0	-0.0	-0.0
0.165	-0.0	-0.0	-0.0	-0.8512226343154907	-3.5377330780029297	-749.4213256835938	-0.0	-0.0	-0.0	-34.55845260620117	16.17393684387207	75.94096374511719	-0.0	-0.0	-0.0	-0.0	-0.0	-0.0
0.1655	-0.0	-0.0	-0.0	-0.9334444403648376	-2.372281074523926	-750.6699829101562	-0.0	-0.0	-0.0	-34.73733139038086	16.38163185119629	74.6172103881836	-0.0	-0.0	-0.0	-0.0	-0.0	-0.0
0.166	-0.0	-0.0	-0.0	-1.3381576538085938	-0.9804344177246094	-752.65380859375	-0.0	-0.0	-0.0	-34.963802337646484	16.00732421875	76.26414489746094	-0.0	-0.0	-0.0	-0.0	-0.0	-0.0
0.1665	-0.0	-0.0	-0.0	-2.1340696811676025	-0.7404279708862305	-754.5838012695312	-0.0	-0.0	-0.0	-35.04763412475586	16.194534301757812	75.4547119140625	-0.0	-0.0	-0.0	-0.0	-0.0	-0.0
0.167	-0.0	-0.0	-0.0	-2.882107973098755	-0.4942663908004761	-755.9696044921875	-0.0	-0.0	-0.0	-34.93097686767578	16.194534301757812	75.34741973876953	-0.0	-0.0	-0.0	-0.0	-0.0	-0.0
0.1675	-0.0	-0.0	-0.0	-3.499335527420044	-0.3565216064453125	-757.4627075195312	-0.0	-0.0	-0.0	-34.78429412841797	16.362146377563477	75.1813735961914	-0.0	-0.0	-0.0	-0.0	-0.0	-0.0
0.168	-0.0	-0.0	-0.0	-3.4647512435913086	-0.3091393113136291	-758.7386474609375	-0.0	-0.0	-0.0	-34.97826385498047	16.249454498291016	75.28838348388672	-0.0	-0.0	-0.0	-0.0	-0.0	-0.0
